HIERARCHY
ROOT Hips
{
	OFFSET 0.00000 0.00000 0.00000
	CHANNELS 6 Xposition Yposition Zposition Zrotation Yrotation Xrotation 
	JOINT LHipJoint
	{
		OFFSET 0 0 0
		CHANNELS 3 Zrotation Yrotation Xrotation
		JOINT LeftHip
		{
			OFFSET 1.58895 -1.83665 0.71753
			CHANNELS 3 Zrotation Yrotation Xrotation
			JOINT LeftKnee
			{
				OFFSET 2.50528 -6.88321 0.00000
				CHANNELS 3 Zrotation Yrotation Xrotation
				JOINT LeftAnkle
				{
					OFFSET 2.63244 -7.23257 0.00000
					CHANNELS 3 Zrotation Yrotation Xrotation
					JOINT LeftToe
					{
						OFFSET 0.23691 -0.65090 1.72750
						CHANNELS 3 Zrotation Yrotation Xrotation
						End Site
						{
							OFFSET 0.00000 -0.00000 0.92561
						}
					}
				}
			}
		}
	}
	JOINT RHipJoint
	{
		OFFSET 0 0 0
		CHANNELS 3 Zrotation Yrotation Xrotation
		JOINT RightHip
		{
			OFFSET -1.51435 -1.83665 0.71753
			CHANNELS 3 Zrotation Yrotation Xrotation
			JOINT RightKnee
			{
				OFFSET -2.54551 -6.99375 0.00000
				CHANNELS 3 Zrotation Yrotation Xrotation
				JOINT RightAnkle
				{
					OFFSET -2.66027 -7.30903 0.00000
					CHANNELS 3 Zrotation Yrotation Xrotation
					JOINT RightToe
					{
						OFFSET -0.22981 -0.63138 2.03959
						CHANNELS 3 Zrotation Yrotation Xrotation
						End Site
						{
							OFFSET -0.00000 -0.00000 1.07060
						}
					}
				}
			}
		}
	}
	JOINT lowerback
	{
		OFFSET 0 0 0
		CHANNELS 3 Zrotation Yrotation Xrotation
		JOINT Chest
		{
			OFFSET -0.02651 1.86275 -0.11152
			CHANNELS 3 Zrotation Yrotation Xrotation
			JOINT Chest2
			{
				OFFSET 0.01019 1.86224 0.04087
				CHANNELS 3 Zrotation Yrotation Xrotation
				JOINT lowerneck
				{
					OFFSET 0 0 0
					CHANNELS 3 Zrotation Yrotation Xrotation
					JOINT Neck
					{
						OFFSET -0.01926 1.80512 0.08867
						CHANNELS 3 Zrotation Yrotation Xrotation
						JOINT Head
						{
							OFFSET 0.05516 1.76451 -0.38475
							CHANNELS 3 Zrotation Yrotation Xrotation
							End Site
							{
								OFFSET 0.01592 1.82587 -0.14001
							}
						}
					}
				}
				JOINT LeftCollar
				{
					OFFSET 0 0 0
					CHANNELS 3 Zrotation Yrotation Xrotation
					JOINT LeftShoulder
					{
						OFFSET 3.47116 1.51376 0.14491
CHANNELS 3 Zrotation Xrotation Yrotation
						JOINT LeftElbow
						{
OFFSET 0 -4.780950 0.000000
CHANNELS 3 Zrotation Xrotation Yrotation
							JOINT LeftWrist
							{
OFFSET 0 -3.586150 -0.000000
CHANNELS 3 Zrotation Xrotation Yrotation
								JOINT lhand
								{
									OFFSET 0 0 0
CHANNELS 3 Zrotation Xrotation Yrotation
									JOINT LFingers
									{
OFFSET 0 -0.659810 0.000000
CHANNELS 3 Zrotation Xrotation Yrotation
										End Site
										{
OFFSET 0 -0.531960 0.000000
										}
									}
								}
								JOINT LThumb
								{
OFFSET 0 0.000000 0.000000
CHANNELS 3 Zrotation Xrotation Yrotation
									End Site
									{
OFFSET 0 -0.540080 0.540080
									}
								}
							}
						}
					}
				}
				JOINT RightCollar
				{
					OFFSET 0 0 0
					CHANNELS 3 Zrotation Yrotation Xrotation
					JOINT RightShoulder
					{
						OFFSET -3.31725 1.61216 0.35156
CHANNELS 3 Zrotation Xrotation Yrotation
						JOINT RightElbow
						{
OFFSET 0 -4.489130 0.000000
CHANNELS 3 Zrotation Xrotation Yrotation
							JOINT RightWrist
							{
OFFSET 0 -3.705100 0.000000
CHANNELS 3 Zrotation Xrotation Yrotation
								JOINT rhand
								{
									OFFSET 0 0 0
CHANNELS 3 Zrotation Xrotation Yrotation
									JOINT RFingers
									{
OFFSET 0 -0.449140 0.000000
CHANNELS 3 Zrotation Xrotation Yrotation
										End Site
										{
OFFSET 0 -0.362110 0.000000
										}
									}
								}
								JOINT RThumb
								{
OFFSET 0 0.000000 0.000000
CHANNELS 3 Zrotation Xrotation Yrotation
									End Site
									{
OFFSET 0 -0.367630 0.367630
									}
								}
							}
						}
					}
				}
			}
		}
	}
}
MOTION
Frames: 11
Frame Time: .0083333
-0.8766 18.1118 5.7366 -4.5047 -3.4406 -0.9720 0.0000 0.0000 0.0000 -12.5561 -2.7942 21.6560 0.9357 -6.1617 -17.2542 -1.1956 19.8719 -14.0948 0.0975 -2.0141 -5.5445 0.0000 0.0000 0.0000 0.0000 0.0000 0.0000 0.0000 0.0000 0.0000 -0.0000 -0.0000 0.0000 -0.0000 -0.0000 0.0000 0.0000 0.0000 0.0000 0.0000 0.0000 0.0000 0.0000 0.0000 0.0000 0.0000 0.0000 0.0000 0.0000 0.0000 0.0000 0.0000 0.0000 0.0000 0.0000 0.0000 0.0000 90.0 0.0 0.0 0.0000 0.0 0.0 -0.0 0.0 0.0 0.0 0.0 0.0 -0.0000 0.0 -0.0 0.0000 0.0 -0.0 0.0000 0.0000 0.0000 -90.0 -0.0 -0.0 -0.0000 -0.0 -0.0 0.0 0.0 -0.0 0.0 0.0 0.0 0.0000 -0.0 0.0 0.0000 0.0 0.0
-0.8773 18.1118 5.7348 -4.4887 -3.4471 -0.9421 0.0000 0.0000 0.0000 -12.5644 -2.7847 21.5837 0.9327 -6.1520 -17.2261 -1.1928 19.8459 -14.0638 0.0998 -2.0375 -5.6092 0.0000 0.0000 0.0000 0.0000 0.0000 0.0000 0.0000 0.0000 0.0000 -0.0000 -0.0000 0.0000 -0.0000 -0.0000 0.0000 0.0000 0.0000 0.0000 0.0000 0.0000 0.0000 0.0000 0.0000 0.0000 0.0000 0.0000 0.0000 0.0000 0.0000 0.0000 0.0000 0.0000 0.0000 0.0000 0.0000 0.0000 90.0 0.0 0.0 0.0000 0.0 0.0 -0.0 0.0 0.0 0.0 0.0 0.0 -0.0000 0.0 -0.0 0.0000 0.0 -0.0 0.0000 0.0000 0.0000 -90.0 -0.0 -0.0 -0.0000 -0.0 -0.0 0.0 0.0 -0.0 0.0 0.0 0.0 0.0000 -0.0 0.0 0.0000 0.0 0.0
-0.8785 18.1130 5.7326 -4.4852 -3.4624 -0.9315 0.0000 0.0000 0.0000 -12.5513 -2.7355 21.5348 0.9322 -6.1503 -17.2211 -1.1941 19.8277 -13.9589 0.1062 -2.1011 -5.7852 0.0000 0.0000 0.0000 0.0000 0.0000 0.0000 0.0000 0.0000 0.0000 -0.0000 -0.0000 0.0000 -0.0000 -0.0000 0.0000 0.0000 0.0000 0.0000 0.0000 0.0000 0.0000 0.0000 0.0000 0.0000 0.0000 0.0000 0.0000 0.0000 0.0000 0.0000 0.0000 0.0000 0.0000 0.0000 0.0000 0.0000 90.0 0.0 0.0 0.0000 0.0 0.0 -0.0 0.0 0.0 0.0 0.0 0.0 -0.0000 0.0 -0.0 0.0000 0.0 -0.0 0.0000 0.0000 0.0000 -90.0 -0.0 -0.0 -0.0000 -0.0 -0.0 0.0 0.0 -0.0 0.0 0.0 0.0 0.0000 -0.0 0.0 0.0000 0.0 0.0
-0.8786 18.1135 5.7310 -4.4794 -3.4810 -0.9486 0.0000 0.0000 0.0000 -12.5680 -2.7625 21.5070 0.9216 -6.1162 -17.1220 -1.1935 19.8222 -13.9523 0.1101 -2.1395 -5.8913 0.0000 0.0000 0.0000 0.0000 0.0000 0.0000 0.0000 0.0000 0.0000 -0.0000 -0.0000 0.0000 -0.0000 -0.0000 0.0000 0.0000 0.0000 0.0000 0.0000 0.0000 0.0000 0.0000 0.0000 0.0000 0.0000 0.0000 0.0000 0.0000 0.0000 0.0000 0.0000 0.0000 0.0000 0.0000 0.0000 0.0000 90.0 0.0 0.0 0.0000 0.0 0.0 -0.0 0.0 0.0 0.0 0.0 0.0 -0.0000 0.0 -0.0 0.0000 0.0 -0.0 0.0000 0.0000 0.0000 -90.0 -0.0 -0.0 -0.0000 -0.0 -0.0 0.0 0.0 -0.0 0.0 0.0 0.0 0.0000 -0.0 0.0 0.0000 0.0 0.0
-0.8748 18.1092 5.7391 -4.5324 -3.5848 -1.0322 0.0000 0.0000 0.0000 -12.5684 -2.7931 21.6292 0.9095 -6.0771 -17.0083 -1.1847 19.8397 -14.2403 0.0982 -2.0214 -5.5647 0.0000 0.0000 0.0000 0.0000 0.0000 0.0000 0.0000 0.0000 0.0000 -0.0000 -0.0000 0.0000 -0.0000 -0.0000 0.0000 0.0000 0.0000 0.0000 0.0000 0.0000 0.0000 0.0000 0.0000 0.0000 0.0000 0.0000 0.0000 0.0000 0.0000 0.0000 0.0000 0.0000 0.0000 0.0000 0.0000 0.0000 90.0 0.0 0.0 0.0000 0.0 0.0 -0.0 0.0 0.0 0.0 0.0 0.0 -0.0000 0.0 -0.0 0.0000 0.0 -0.0 0.0000 0.0000 0.0000 -90.0 -0.0 -0.0 -0.0000 -0.0 -0.0 0.0 0.0 -0.0 0.0 0.0 0.0 0.0000 -0.0 0.0 0.0000 0.0 0.0
-0.8916 18.1087 5.7642 -4.1222 -3.8766 -0.9696 0.0000 0.0000 0.0000 -13.0677 -2.9912 21.6670 0.8972 -6.0368 -16.8912 -1.1971 20.0905 -14.8768 0.0765 -1.7840 -4.9090 0.0000 0.0000 0.0000 0.0000 0.0000 0.0000 0.0000 0.0000 0.0000 -0.0000 -0.0000 0.0000 -0.0000 -0.0000 0.0000 2.0586 0.8672 2.0904 0.9725 1.2407 -1.1056 -0.2056 0.5953 -2.2841 -1.4035 -1.8370 -12.3479 3.8029 -3.1564 21.8161 1.1705 -1.1998 8.9477 0.0000 -0.0000 0.0000 -2.2443 13.2332 -25.4924 20.2535 -30.9465 5.6611 4.0929 6.2118 29.0603 0.0 0.0 0.0 -7.1250 0.0 0.0 -15.4766 1.7575 -15.5794 0.0000 -0.0000 0.0000 1.0834 20.1349 21.0552 -24.7436 -35.9408 -8.139 -8.634 18.3069 27.2491 0.0 0.0 0.0 7.1250 0.0 -0.0 23.2595 55.9398 -6.4927
-0.8965 18.1076 5.7741 -4.0388 -3.9874 -0.9651 0.0000 0.0000 0.0000 -13.1977 -3.1199 21.7044 0.8867 -6.0025 -16.7915 -1.2006 20.2019 -15.1941 0.0681 -1.6838 -4.6325 0.0000 0.0000 0.0000 0.0000 0.0000 0.0000 0.0000 0.0000 0.0000 -0.0000 -0.0000 0.0000 -0.0000 -0.0000 0.0000 1.8661 0.8909 1.8489 0.9833 1.2589 -1.0498 -0.0829 0.6092 -2.0949 -1.4420 -1.7960 -12.4902 3.7213 -3.0754 21.9366 1.1580 -1.1705 9.0123 0.0000 0.0000 0.0000 -2.2756 13.2239 -25.4376 20.2804 -30.9787 5.675 4.1025 6.2549 29.0905 0.0 0.0 0.0 -7.1250 0.0 0.0 -15.4715 1.7276 -15.5825 0.0000 0.0000 0.0000 0.9651 20.0684 21.2104 -24.6763 -35.8713 -8.0995 -8.2006 18.2724 27.2435 0.0 0.0 0.0 7.1250 0.0 -0.0 23.6830 55.8488 -6.5672
-0.8966 18.1083 5.7718 -4.0725 -3.9773 -0.9711 0.0000 0.0000 0.0000 -13.1553 -3.0928 21.6117 0.8721 -5.9542 -16.6515 -1.1864 20.1137 -15.1927 0.0677 -1.6784 -4.6178 0.0000 0.0000 0.0000 0.0000 0.0000 0.0000 0.0000 0.0000 0.0000 -0.0000 -0.0000 0.0000 -0.0000 -0.0000 0.0000 1.8866 0.8866 1.8736 0.9964 1.2547 -1.0514 -0.0812 0.6067 -2.1104 -1.4679 -1.7968 -12.4992 3.7530 -3.0779 21.9279 1.1728 -1.1704 9.0120 0.0000 0.0000 0.0000 -2.2742 13.1979 -25.4628 20.2697 -30.966 5.6695 4.0946 6.2482 29.0116 0.0 0.0 0.0 -7.1250 0.0 0.0 -15.4749 1.8043 -15.5642 0.0000 0.0000 0.0000 0.9681 20.0886 21.2235 -24.6913 -35.8868 -8.1082 -8.4288 18.2183 27.1868 0.0 0.0 0.0 7.1250 0.0 -0.0 23.4202 55.8423 -6.4846
-0.8964 18.1089 5.7694 -4.0813 -4.0013 -0.9702 0.0000 0.0000 0.0000 -13.1418 -3.0420 21.5314 0.8618 -5.9197 -16.5515 -1.1777 20.0549 -15.1765 0.0672 -1.6729 -4.6026 0.0000 0.0000 0.0000 0.0000 0.0000 0.0000 0.0000 0.0000 0.0000 -0.0000 -0.0000 0.0000 -0.0000 -0.0000 0.0000 1.8972 0.9020 1.8928 0.9921 1.2762 -1.0585 -0.0926 0.6171 -2.1278 -1.4738 -1.7861 -12.5144 3.7731 -3.0661 21.9296 1.1819 -1.1630 9.0155 0.0000 0.0000 0.0000 -2.2562 13.1862 -25.5067 20.2576 -30.9514 5.6632 4.0838 6.1954 28.9759 0.0 0.0 0.0 -7.1250 0.0 0.0 -15.4806 1.8396 -15.5603 0.0000 0.0000 0.0000 0.9845 20.1017 21.2069 -24.7088 -35.9049 -8.1185 -8.6168 18.1907 26.6787 0.0 0.0 0.0 7.1250 0.0 -0.0 22.9018 55.4143 -6.0868
-0.9038 18.1181 5.7513 -4.0501 -3.6677 -0.7698 0.0000 0.0000 0.0000 -13.0055 -2.7854 20.9647 0.8532 -5.8909 -16.4681 -1.1345 19.5969 -14.5290 0.0807 -1.8330 -5.0442 0.0000 0.0000 0.0000 0.0000 0.0000 0.0000 0.0000 0.0000 0.0000 -0.0000 -0.0000 0.0000 -0.0000 -0.0000 0.0000 1.7295 0.7976 1.9751 1.0004 1.1370 -1.1817 0.0123 0.5484 -2.3061 -1.5114 -1.7724 -12.5276 3.8402 -3.0541 21.9270 1.2125 -1.1532 9.0184 0.0000 0.0000 0.0000 -2.2491 13.1774 -25.5774 20.3313 -31.0395 5.7012 3.9676 6.3549 28.5253 0.0 0.0 0.0 -7.1250 0.0 0.0 -15.5416 2.284 -15.498 0.0000 0.0000 0.0000 1.0029 20.0906 21.1646 -24.7126 -35.9088 -8.1207 -8.7326 18.1725 25.5738 0.0 0.0 0.0 7.1250 0.0 -0.0 22.0985 54.4196 -5.3109
-0.9278 18.1454 5.7007 -3.9700 -2.5997 -0.1408 0.0000 0.0000 0.0000 -12.6190 -2.1206 19.3630 0.8430 -5.8564 -16.3683 -1.0086 18.2470 -12.6420 0.1340 -2.3590 -6.4990 0.0000 0.0000 0.0000 0.0000 0.0000 0.0000 0.0000 0.0000 0.0000 -0.0000 -0.0000 0.0000 -0.0000 -0.0000 0.0000 1.2205 0.4527 2.1631 1.0597 0.6728 -1.5354 0.3734 0.3227 -2.7876 -1.5773 -1.7842 -12.6116 3.9069 -3.0727 21.9622 1.2438 -1.1588 9.0490 -0.0000 -0.0000 0.0000 -2.2541 13.166 -25.7199 20.5249 -31.2695 5.8013 3.7527 6.7319 27.5413 0.0 0.0 0.0 -7.1250 0.0 0.0 -15.6579 3.2497 -15.3385 -0.0000 -0.0000 0.0000 1.0057 20.0295 21.1204 -24.6960 -35.8916 -8.111 -8.7469 18.154 24.9151 0.0 0.0 0.0 7.1250 0.0 -0.0 21.6948 53.8126 -4.878
